#!OML:ASF E:/inclinewalkrobotboard/Project1/Captureday1/Session1/subject1.ASF
:FULLY-SPECIFIED
:DEGREES
326
root 0 0 0 1.8628507133342889 -3.6771483462536447 2.8532374465110757
lowerback 12.319615143985699 0.7702791020491697 -0.8501182355875122
upperback -4.049180043986293 0.8901764989739884 -0.7118535287582458
thorax -11.284032236858154 0.41469009792067346 -0.5001119189584364
lowerneck -7.1494266440111796 1.4520766612033336 4.317684563561938
upperneck 19.308368140531655 2.956676247125827 -8.306172658636543
head 7.23020918608421 1.018226309808751 -3.2043423305648036
rclavicle -1.1888117859139535E-15 -1.969039592211672E-15
rhumerus 16.768064949546634 12.402798359372076 -50.743904688607316
rradius 68.36899486431945
rwrist 24.46273817046106
rhand -32.94611352247482 -49.2228501855569
rfingers 7.125019999999964
rthumb -6.210508217200914 -79.30946842127594
lclavicle 2.891884852212833E-16 -1.0462863519322086E-16
lhumerus 17.892662324034504 -13.64007719960034 49.33926602968755
lradius 67.29262950714576
lwrist -18.302042229127423
lhand -44.02935494083698 -60.785454336928275
lfingers 7.1250199999999575
lthumb -16.863518820245762 -31.351370090981238
rfemur -35.76881127120757 -1.7133988540942013 15.275297287615425
rtibia 54.68191094351448
rfoot -18.013276912081118 -15.998081992610349
rtoes -10.658458363575523
lfemur -23.44322283555976 4.910246493848045 -15.582581345073416
ltibia 64.01458619473844
lfoot -15.82096697619195 -3.456849355521633
ltoes -12.002901389434522
327
root 0 0 0 2.1540471168870883 -3.825797331073879 2.6265527070942203
lowerback 12.246649023971049 0.8643914509022097 -0.6093392571203374
upperback -4.091676726605987 1.0457323846130742 -0.713695100793711
thorax -11.269276984205154 0.48301547765656966 -0.663414089445411
lowerneck -7.106729473984958 1.4369108745993933 4.3315566252488695
upperneck 19.159363810318958 2.9301874463079454 -8.277763112273435
head 7.172825313468277 1.011863661215795 -3.1974204368494608
rclavicle -1.402758478396795E-15 -1.7372185096746857E-15
rhumerus 17.268856091048903 13.057204880754126 -51.1084144123852
rradius 68.77197511038591
rwrist 24.047048329792055
rhand -32.97176024918775 -49.22722699314205
rfingers 7.125019999999964
rthumb -6.2373964503637644 -79.2960863770088
lclavicle 3.82717138486507E-16 1.5720349628767189E-16
lhumerus 18.023059444795337 -13.89413203026972 49.416755778019095
lradius 67.45624132611108
lwrist -18.162429124577084
lhand -44.034989890286 -60.58646409084825
lfingers 7.1250199999999575
lthumb -16.86658014609959 -31.154721337088592
rfemur -33.39107744856801 -0.9976393625556406 16.431317864161453
rtibia 50.069259182610374
rfoot -22.43007826686065 -16.868153470733425
rtoes -13.105544372488712
lfemur -24.885955291199814 4.073229020976468 -15.578628196897139
ltibia 56.24097053910998
lfoot -21.107268426005483 0.5009514013900969
ltoes -13.171366327365103
328
root 0 0 0 2.4541647026120916 -4.016420404121041 2.405493567207317
lowerback 12.136848649288222 0.9868443750433673 -0.36728991387452226
upperback -4.13870960532838 1.2372197659548778 -0.7345182847542494
thorax -11.236157380924153 0.5688393495358818 -0.8508284531637733
lowerneck -7.047741055402791 1.4029033314617874 4.3266913076639835
upperneck 19.0231393714171 2.87374801812242 -8.207934832189132
head 7.117792325103433 0.9943587943736857 -3.1764593684242106
rclavicle -1.515023262110839E-15 -1.4487916712338354E-15
rhumerus 17.704176306785364 13.645418895032423 -51.463763526997866
rradius 69.12302295946647
rwrist 23.649151491942135
rhand -32.98562619200965 -49.189560832370745
rfingers 7.125019999999964
rthumb -6.252700357325143 -79.24433486890356
lclavicle 5.333760000877818E-16 4.625622069396371E-16
lhumerus 18.066902345715157 -14.03535773526039 49.47907517379075
lradius 67.5279623736936
lwrist -18.069041902795227
lhand -44.02331445424474 -60.41203251170409
lfingers 7.1250199999999575
lthumb -16.85365797192961 -30.979351271922145
rfemur -29.79864130519139 -0.0837006053538718 18.027610216665828
rtibia 44.52901516067748
rfoot -26.944902953424112 -17.36464281776456
rtoes -15.974702990312457
lfemur -25.23078592485003 2.941336397826055 -15.704924028057471
ltibia 46.51493562827911
lfoot -26.671795825708863 4.536211154356111
ltoes -15.24164585979852
329
root 0 0 0 2.69148390951067 -4.183030571763647 2.2514227480730993
lowerback 12.01327604689021 1.096986108030257 -0.19725120151045927
upperback -4.173788113296997 1.401236254579576 -0.7637891134471647
thorax -11.185189058778196 0.6438372582404057 -0.9997892677827169
lowerneck -7.006532034848139 1.3607340056709647 4.302141266816379
upperneck 18.931600196097307 2.80628587939733 -8.114078807339753
head 7.08123012152994 0.9712726336852381 -3.1460850965507428
rclavicle -1.5181117972716808E-15 -1.1340038779941925E-15
rhumerus 17.97210177104811 14.03452820613626 -51.73589888721087
rradius 69.33841895336323
rwrist 23.353459531078137
rhand -32.98211050886904 -49.10699275427867
rfingers 7.125019999999963
rthumb -6.250112057028765 -79.15323077874865
lclavicle 7.203934702500902E-16 7.519671641482254E-16
lhumerus 18.007765637955735 -14.037263564727043 49.52225666091717
lradius 67.4887194307453
lwrist -18.032476971434917
lhand -43.993617913973665 -60.27744457099964
lfingers 7.125019999999957
lthumb -16.824282199746456 -30.840578222667833
rfemur -26.691301619681237 1.0135225118265088 19.447012980147505
rtibia 37.92577339996981
rfoot -29.91475043270806 -17.370546987643998
rtoes -18.519632181132042
lfemur -24.34065006129176 1.8354344072514168 -15.799917602799749
ltibia 39.00969131195579
lfoot -29.786806366885777 6.706560993772638
ltoes -17.445306215114908
